<svg viewBox="0 0 200 150" xmlns="http://www.w3.org/2000/svg">
  <g fill="none" stroke="black" stroke-width="0.1">
    <path d="M130 145 L230 45" />
    <path d="M131.04717841162457 144.99999998476915 L229.9945169365512 45.333332716049725" />
    <path d="M132.09424198833568 144.99999975630607 L229.97806834748457 45.666661728406034" />
    <path d="M133.14107590781282 144.99999876629943 L229.95065603657315 45.999983333416665" />
    <path d="M134.18756537291995 144.99999610089705 L229.91228300988584 46.33329382751166" />
    <path d="M135.2335956242944 144.99999048070578 L229.8629534754574 46.66658950724451" />
    <path d="M136.27905195293133 144.99998026079186 L229.80267284282715 46.99986666933331" />
    <path d="M137.32381971276317 144.99996343068096 L229.7314477224458 47.333121610701916" />
    <path d="M138.36778433323155 144.9999376143589 L229.64928592495045 47.66635062852107" />
    <path d="M139.41083133185143 144.99990007027208 L229.556196460308 47.999550020249565" />
    <path d="M140.45284632676535 144.99984769132877 L229.45218953682735 48.332716083675365" />
    <path d="M141.49371504928666 144.99977700490072 L229.33727656003964 48.66584511695674" />
    <path d="M142.53332335643043 144.99968417282543 L229.21147013144778 48.99893341866341" />
    <path d="M143.57155724343045 144.99956499140904 L229.07478404714436 49.33197728781769" />
    <path d="M144.60830285624115 144.99941489143066 L228.92723329629882 49.664973023935566" />
    <path d="M145.64344650402307 144.99922893814704 L228.76883405951378 49.997916927067834" />
    <path d="M146.67687467161022 144.9990018312994 L228.5996037070505 50.330805297841216" />
    <path d="M147.70847403195833 144.99872790512114 L228.4195607969242 50.66363443749947" />
    <path d="M148.73813145857247 144.9984011283477 L228.22872507286888 50.99640064794446" />
    <path d="M149.7657340379126 144.9980151042282 L228.02711746217219 51.329100231777275" />
    <path d="M150.79116908177593 144.99756307053946 L227.81476007338057 51.6617294923393" />
    <path d="M151.81432413965425 144.99703789960262 L227.59167619387475 51.994284733753275" />
    <path d="M152.83508701106558 144.99643209830225 L227.35789028731602 52.326762260964394" />
    <path d="M153.85334575785808 144.99573780810897 L227.1134279909636 52.65915837978132" />
    <path d="M154.8689887164855 144.99494680510517 L226.85831611286312 52.99146939691727" />
    <path d="M155.88190451025207 144.99405050001496 L226.59258262890683 53.32369162003103" />
    <path d="M156.89198206152656 144.9930399382377 L226.31625667976581 53.65582135776797" />
    <path d="M157.89911060392294 144.99190579988635 L226.0293685676943 53.9878549198011" />
    <path d="M158.90317969444715 144.99063839983074 L225.73194975320672 54.319788616872046" />
    <path d="M159.90407922560865 144.98922768774588 L225.42403285162771 54.65161876083201" />
    <path d="M160.90169943749473 144.98766324816606 L225.10565162951536 54.98334166468281" />
    <path d="M161.895930929807 144.98593430054527 L224.77684100095857 55.31495364261784" />
    <path d="M162.88666467385832 144.98402969932374 L224.4376370237481 55.64645101006295" />
    <path d="M163.87379202452914 144.98193793400202 L224.08807689542255 55.97783008371748" />
    <path d="M164.85720473218151 144.97964712922197 L223.72819894918916 56.30908718159513" />
    <path d="M165.83679495453003 144.97714504485631 L223.35804264972018 56.6402186230649" />
    <path d="M166.8124552684678 144.97441907610624 L222.97764858882516 56.971220728891936" />
    <path d="M167.78407868184672 144.9714562536082 L222.58705848099947 57.302089821278486" />
    <path d="M168.7515586452103 144.96824324355043 L222.18631515885005 57.63282222390469" />
    <path d="M169.71478906347807 144.96476634779907 L221.7754625683981 57.96341426196949" />
    <path d="M170.67366430758 144.96101150403544 L221.35454576426008 58.29386226223141" />
    <path d="M171.62807922604011 144.9569642859044 L220.92361090470683 58.6241625530494" />
    <path d="M172.57792915650728 144.95260990317453 L220.48270524660194 58.95431146442365" />
    <path d="M173.52310993723276 144.94793320191067 L220.03187714021936 59.2843053280363" />
    <path d="M174.46351791849276 144.94291866465986 L219.5711760239413 59.61414047729225" />
    <path d="M175.39904997395467 144.93755041065072 L219.10065241883677 59.94381324735992" />
    <path d="M176.32960351198616 144.93181219600734 L218.62035792312147 60.27331997521192" />
    <path d="M177.2550764869054 144.92568741397832 L218.13034520649921 60.602656999665776" />
    <path d="M178.17536741017153 144.91915909518144 L217.63066800438637 60.931820661424595" />
    <path d="M179.09037536151408 144.9122099078649 L217.12138111201895 61.26080730311776" />
    <path d="M180 144.90482215818577 L216.60254037844388 61.5896132693415" />
    <path d="M180.90414157503713 144.89697779050613 L216.07420270039438 61.9182349066996" />
    <path d="M181.80270093731303 144.88865838770835 L215.53642601605065 62.246668563843905" />
    <path d="M182.69557954966777 144.87984517152927 L214.9892692986864 62.574910591514936" />
    <path d="M183.58267949789968 144.87051900291522 L214.4327925502015 62.90295734258242" />
    <path d="M184.4639035015027 144.86066038239744 L213.8670567945424 63.23080517208584" />
    <path d="M185.33915492433442 144.8502494504898 L213.29212407100994 63.558450437274914" />
    <path d="M186.20833778521308 144.83926598810902 L212.7080574274562 63.885889497650055" />
    <path d="M187.07135676844317 144.82768941701835 L212.11492091337038 64.21311871500286" />
    <path d="M187.9281172342679 144.81549880029573 L211.51277957285544 64.54013445345649" />
    <path d="M188.77852522924732 144.80267284282715 L210.90169943749476 64.86693307950613" />
    <path d="M189.62248749656158 144.78918989182608 L210.28174751911146 65.19351096205926" />
    <path d="M190.45991148623747 144.77502793737995 L209.65299180241962 65.51986447247612" />
    <path d="M191.29070536529764 144.7601646130247 L209.01550123756903 65.84598998460996" />
    <path d="M192.11477802783105 144.74457719634788 L208.36934573258398 66.17188387484731" />
    <path d="M192.93203910498374 144.72824260962201 L207.71459614569707 66.49754252214834" />
    <path d="M193.74239897486896 144.7111374204684 L207.05132427757894 66.82296230808693" />
    <path d="M194.54576877239504 144.69323784255278 L206.37960286346424 67.14813961689107" />
    <path d="M195.34206039901053 144.67451973631358 L205.69950556517563 67.47307083548289" />
    <path d="M196.13118653236518 144.65495860972445 L205.01110696304596 67.79775235351885" />
    <path d="M196.9130606358858 144.63452961909064 L204.31448254773943 68.12218056342985" />
    <path d="M197.68759696826606 144.6132075698821 L203.60970871197344 68.44635186046139" />
    <path d="M198.45471059286888 144.5909669176028 L202.89686274214114 68.77026264271346" />
    <path d="M199.2143173870407 144.56778176869813 L202.1760228098362 69.09390931118072" />
    <path d="M199.96633405133656 144.54362588150127 L201.44726796328035 69.41728826979241" />
    <path d="M200.71067811865476 144.5184726672197 L200.71067811865476 69.74039592545229" />
    <path d="M201.44726796328035 144.49229519096264 L199.96633405133656 70.06322868807865" />
    <path d="M202.1760228098362 144.4650661728109 L199.2143173870407 70.38578297064412" />
    <path d="M202.89686274214114 144.4367579889301 L198.45471059286888 70.70805518921551" />
    <path d="M203.60970871197344 144.40734267272836 L197.68759696826606 71.03004176299373" />
    <path d="M204.31448254773943 144.37679191605963 L196.9130606358858 71.3517391143535" />
    <path d="M205.01110696304596 144.3450770704741 L196.13118653236518 71.67314366888311" />
    <path d="M205.69950556517563 144.31216914851626 L195.34206039901056 71.99425185542415" />
    <path d="M206.3796028634642 144.27803882507243 L194.54576877239506 72.31506010611118" />
    <path d="M207.05132427757894 144.24265643876856 L193.74239897486896 72.63556485641138" />
    <path d="M207.71459614569707 144.2059919934199 L192.93203910498374 72.95576254516415" />
    <path d="M208.36934573258398 144.168015159533 L192.11477802783102 73.2756496146207" />
    <path d="M209.01550123756903 144.1286952758624 L191.29070536529767 73.59522251048355" />
    <path d="M209.65299180241962 144.08800135102223 L190.4599114862375 73.91447768194604" />
    <path d="M210.28174751911146 144.04590206515456 L189.62248749656158 74.23341158173173" />
    <path d="M210.90169943749476 144.00236577165575 L188.77852522924732 74.55202066613396" />
    <path d="M211.51277957285544 143.9573604989616 L187.9281172342679 74.87030139505504" />
    <path d="M212.11492091337038 143.91085395239332 L187.0713567684432 75.18825023204569" />
    <path d="M212.7080574274562 143.8628135160651 L186.20833778521308 75.50586364434434" />
    <path d="M213.29212407100994 143.81320625485455 L185.33915492433442 75.82313810291636" />
    <path d="M213.8670567945424 143.76199891643807 L184.46390350150273 76.14007008249322" />
    <path d="M214.4327925502015 143.70915793339134 L183.58267949789965 76.45665606161178" />
    <path d="M214.9892692986864 143.6546494253573 L182.69557954966777 76.77289252265327" />
    <path d="M215.53642601605065 143.59843920128236 L181.80270093731303 77.0887759518825" />
    <path d="M216.07420270039438 143.54049276172253 L180.90414157503713 77.40430283948683" />
    <path d="M216.60254037844385 143.4807753012208 L180 77.71946967961523" />
    <path d="M217.12138111201892 143.4192517107567 L179.09037536151408 78.03427297041713" />
    <path d="M217.63066800438637 143.3558865802702 L178.17536741017153 78.34870921408144" />
    <path d="M218.13034520649921 143.29064420126093 L177.2550764869054 78.66277491687535" />
    <path d="M218.62035792312147 143.22348856946377 L176.3296035119862 78.97646658918319" />
    <path d="M219.10065241883677 143.15438338760325 L175.39904997395467 79.28978074554513" />
    <path d="M219.5711760239413 143.0832920682268 L174.46351791849276 79.60271390469602" />
    <path d="M220.03187714021936 143.0101777366197 L173.52310993723276 79.91526258960396" />
    <path d="M220.48270524660194 142.93500323380198 L172.57792915650725 80.227423327509" />
    <path d="M220.92361090470683 142.8577311196096 L171.62807922604011 80.5391926499617" />
    <path d="M221.35454576426008 142.77832367586063 L170.67366430758005 80.85056709286172" />
    <path d="M221.7754625683981 142.69674290960842 L169.71478906347807 81.1615431964962" />
    <path d="M222.18631515885005 142.6129505564832 L168.7515586452103 81.4721175055783" />
    <path d="M222.58705848099947 142.52690808412297 L167.78407868184672 81.78228656928557" />
    <path d="M222.97764858882513 142.43857669569582 L166.8124552684678 82.09204694129826" />
    <path d="M223.35804264972018 142.3479173335151 L165.83679495453 82.40139517983766" />
    <path d="M223.72819894918916 142.2548906827483 L164.85720473218151 82.71032784770429" />
    <path d="M224.08807689542255 142.15945717522192 L163.87379202452914 83.01884151231614" />
    <path d="M224.4376370237481 142.06157699332311 L162.88666467385832 83.32693274574677" />
    <path d="M224.77684100095857 141.96121007400023 L161.895930929807 83.63459812476341" />
    <path d="M225.10565162951536 141.85831611286312 L160.90169943749476 83.94183423086506" />
    <path d="M225.4240328516277 141.7528545683852 L159.90407922560865 84.24863765032029" />
    <path d="M225.73194975320672 141.6447846662084 L158.90317969444715 84.55500497420546" />
    <path d="M226.0293685676943 141.53406540355283 L157.89911060392296 84.86093279844229" />
    <path d="M226.31625667976581 141.42065555373202 L156.89198206152656 85.1664177238359" />
    <path d="M226.59258262890683 141.30451367077626 L155.88190451025207 85.47145635611247" />
    <path d="M226.85831611286312 141.18559809416448 L154.8689887164855 85.77604530595701" />
    <path d="M227.1134279909636 141.0638669536666 L153.85334575785808 86.080181189051" />
    <path d="M227.35789028731602 140.93927817429818 L152.83508701106558 86.38386062610998" />
    <path d="M227.59167619387472 140.81178948138796 L151.81432413965427 86.68708024292107" />
    <path d="M227.81476007338057 140.68135840576076 L150.79116908177593 86.98983667038058" />
    <path d="M228.02711746217219 140.54794228903643 L149.76573403791264 87.2921265445313" />
    <path d="M228.22872507286885 140.41149828904685 L148.73813145857247 87.59394650659996" />
    <path d="M228.4195607969242 140.2719833853721 L147.70847403195833 87.89529320303453" />
    <path d="M228.5996037070505 140.12935438499727 L146.67687467161022 88.1961632855415" />
    <path d="M228.76883405951378 139.98356792809176 L145.6434465040231 88.49655341112302" />
    <path d="M228.92723329629882 139.8345804939119 L144.60830285624115 88.79646024211414" />
    <path d="M229.07478404714436 139.68234840682874 L143.57155724343045 89.09588044621982" />
    <path d="M229.21147013144778 139.52682784248253 L142.53332335643043 89.39481069655199" />
    <path d="M229.33727656003964 139.36797483406474 L141.49371504928666 89.69324767166646" />
    <path d="M229.45218953682735 139.20574527872967 L140.45284632676535 89.99118805559996" />
    <path d="M229.556196460308 139.04009494413668 L139.41083133185145 90.28862853790683" />
    <path d="M229.64928592495045 138.8709794751244 L138.36778433323155 90.58556581369587" />
    <path d="M229.7314477224458 138.69835440051858 L137.32381971276317 90.88199658366707" />
    <path d="M229.80267284282715 138.5221751400747 L136.27905195293135 91.17791755414828" />
    <path d="M229.8629534754574 138.3423970115566 L135.2335956242944 91.47332543713175" />
    <path d="M229.91228300988584 138.15897523795286 L134.18756537291995 91.7682169503107" />
    <path d="M229.95065603657315 137.97186495483157 L133.14107590781285 92.0625888171158" />
    <path d="M229.97806834748457 137.7810212178358 L132.0942419883357 92.35643776675155" />
    <path d="M229.9945169365512 137.58639901031987 L131.0471784116246 92.64976053423268" />
    <path d="M230 137.3879532511287 L130 92.9425538604203" />
    <path d="M229.9945169365512 137.18563880252066 L128.95282158837546 93.23481449205826" />
    <path d="M229.97806834748457 136.97941047823605 L127.9057580116643 93.52653918180923" />
    <path d="M229.95065603657315 136.76922305171135 L126.85892409218717 93.81772468829075" />
    <path d="M229.91228300988584 136.55503126444134 L125.81243462708007 94.10836777611131" />
    <path d="M229.8629534754574 136.33678983448976 L124.76640437570562 94.39846521590624" />
    <path d="M229.80267284282715 136.11445346515 L123.72094804706866 94.68801378437368" />
    <path d="M229.7314477224458 135.8879768537562 L122.67618028723685 94.97701026431024" />
    <path d="M229.64928592495045 135.6573147006469 L121.63221566676847 95.26545144464693" />
    <path d="M229.556196460308 135.42242171828164 L120.58916866814856 95.55333412048469" />
    <path d="M229.45218953682735 135.1832526405114 L119.54715367323466 95.84065509313012" />
    <path d="M229.33727656003964 134.9397622320044 L118.50628495071335 96.12741117013087" />
    <path d="M229.21147013144778 134.69190529782804 L117.46667664356957 96.41359916531133" />
    <path d="M229.07478404714436 134.43963669318788 L116.42844275656957 96.69921589880774" />
    <path d="M228.92723329629882 134.1829113333243 L115.39169714375885 96.98425819710386" />
    <path d="M228.76883405951378 133.92168420356845 L114.3565534959769 97.26872289306593" />
    <path d="M228.5996037070505 133.65591036955755 L113.32312532838978 97.55260682597803" />
    <path d="M228.4195607969242 133.385544987611 L112.29152596804167 97.83590684157717" />
    <path d="M228.22872507286885 133.11054331526765 L111.26186854142752 98.11861979208834" />
    <path d="M228.02711746217219 132.83086072198506 L110.23426596208739 98.40074253625941" />
    <path d="M227.81476007338057 132.5464527000018 L109.2088309182241 98.68227193939613" />
    <path d="M227.59167619387475 132.25727487536273 L108.18567586034577 98.96320487339692" />
    <path d="M227.35789028731602 131.96328301910893 L107.16491298893442 99.24353821678764" />
    <path d="M227.1134279909636 131.66443305863186 L106.14665424214192 99.52326885475622" />
    <path d="M226.85831611286312 131.36068108919272 L105.13101128351454 99.80239367918736" />
    <path d="M226.59258262890683 131.0519833856079 L104.11809548974792 100.08090958869698" />
    <path d="M226.31625667976581 130.73829641410015 L103.10801793847344 100.35881348866673" />
    <path d="M226.0293685676943 130.41957684431662 L102.10088939607708 100.63610229127838" />
    <path d="M225.73194975320672 130.09578156151366 L101.09682030555282 100.91277291554806" />
    <path d="M225.42403285162771 129.76686767890902 L100.09592077439135 101.18882228736058" />
    <path d="M225.10565162951536 129.4327925502015 L99.09830056250527 101.46424733950354" />
    <path d="M224.77684100095857 129.0935137822584 L98.10406907019299 101.7390450117014" />
    <path d="M224.4376370237481 128.74898924797083 L97.11333532614168 102.01321225064954" />
    <path d="M224.08807689542255 128.39917709927698 L96.12620797547086 102.28674601004812" />
    <path d="M223.72819894918916 128.0440357803536 L95.1427952678185 102.55964325063596" />
    <path d="M223.35804264972018 127.68352404097544 L94.16320504546997 102.8319009402243" />
    <path d="M222.97764858882516 127.31760095004283 L93.1875447315322 103.10351605373052" />
    <path d="M222.58705848099947 126.94622590927699 L92.2159213181533 103.37448557321167" />
    <path d="M222.18631515885005 126.56935866708311 L91.24844135478969 103.64480648789814" />
    <path d="M221.77546256839813 126.18695933258105 L90.28521093652196 103.91447579422695" />
    <path d="M221.35454576426008 125.79898838980306 L89.32633569241999 104.18349049587529" />
    <path d="M220.92361090470686 125.4054067120583 L88.37192077395989 104.45184760379368" />
    <path d="M220.48270524660194 125.0061755764639 L87.42207084349272 104.71954413623921" />
    <path d="M220.03187714021936 124.60125667864175 L86.47689006276727 104.98657711880874" />
    <path d="M219.5711760239413 124.19061214758062 L85.53648208150727 105.25294358447186" />
    <path d="M219.10065241883677 123.77420456066308 L84.60095002604533 105.51864057360396" />
    <path d="M218.6203579231215 123.35199695885625 L83.67039648801385 105.78366513401895" />
    <path d="M218.13034520649921 122.92395286206575 L82.7449235130946 106.04801432100224" />
    <path d="M217.63066800438634 122.49003628465204 L81.82463258982845 106.31168519734338" />
    <path d="M217.12138111201895 122.05021175110815 L80.90962463848592 106.57467483336865" />
    <path d="M216.60254037844388 121.60444431189781 L80.00000000000003 106.8369803069737" />
    <path d="M216.07420270039438 121.15269955945271 L79.09585842496287 107.09859870365597" />
    <path d="M215.53642601605065 120.69494364432825 L78.197299062687 107.35952711654707" />
    <path d="M214.9892692986864 120.23114329151578 L77.30442045033223 107.6197626464451" />
    <path d="M214.4327925502015 119.76126581691068 L76.41732050210031 107.87930240184686" />
    <path d="M213.8670567945424 119.28527914393455 L75.5360964984973 108.13814349897993" />
    <path d="M213.29212407100994 118.80315182030976 L74.6608450756656 108.39628306183482" />
    <path d="M212.7080574274562 118.31485303498553 L73.79166221478697 108.65371822219679" />
    <path d="M212.11492091337038 117.82035263521288 L72.92864323155683 108.91044611967784" />
    <path d="M211.51277957285544 117.31962114376766 L72.07188276573214 109.1664639017484" />
    <path d="M210.90169943749476 116.81262977631889 L71.2214747707527 109.4217687237691" />
    <path d="M210.28174751911143 116.2993504589412 L70.3775125034384 109.67635774902232" />
    <path d="M209.65299180241965 115.77975584576895 L69.54008851376253 109.93022814874371" />
    <path d="M209.01550123756905 115.2538193367898 L68.70929463470237 110.18337710215366" />
    <path d="M208.36934573258398 114.72151509577586 L67.88522197216898 110.43580179648868" />
    <path d="M207.7145961456971 114.1828180683498 L67.06796089501627 110.68749942703246" />
    <path d="M207.05132427757894 113.6377040001834 L66.25760102513102 110.9384671971473" />
    <path d="M206.37960286346419 113.08614945532634 L65.45423122760492 111.18870231830502" />
    <path d="M205.69950556517563 112.5281318346623 L64.65793960098945 111.43820201011792" />
    <path d="M205.01110696304596 111.96362939448967 L63.86881346763482 111.68696350036979" />
    <path d="M204.31448254773943 111.39262126522418 L63.086939364114215 111.9349840250466" />
    <path d="M203.60970871197344 110.81508747022013 L62.312403031733936 112.18226082836736" />
    <path d="M202.89686274214114 110.23100894470777 L61.54528940713112 112.4287911628145" />
    <path d="M202.17602280983624 109.64036755484271 L60.785682612959334 112.67457228916467" />
    <path d="M201.44726796328035 109.04314611686513 L60.033665948663455 112.91960147651899" />
    <path d="M200.71067811865476 108.43932841636455 L59.28932188134526 113.16387600233341" />
    <path d="M199.96633405133656 107.82889922764704 L58.55273203671969 113.4073931524491" />
    <path d="M199.2143173870407 107.21184433320116 L57.82397719016379 113.65015022112243" />
    <path d="M198.45471059286888 106.58815054325885 L57.10313725785886 113.89214451105514" />
    <path d="M197.68759696826606 105.95780571544734 L56.390291288026575 114.13337333342426" />
    <path d="M196.9130606358858 105.32079877452824 L55.68551745226057 114.37383400791204" />
    <path d="M196.13118653236518 104.67711973221965 L54.98889303695405 114.61352386273568" />
    <path d="M195.34206039901056 104.0267597070968 L54.30049443482437 114.85244023467703" />
    <path d="M194.5457687723951 103.36971094456726 L53.620397136535814 115.09058046911218" />
    <path d="M193.742398974869 102.70596683691602 L52.948675722421086 115.32794192004101" />
    <path d="M192.93203910498374 102.03552194341589 L52.28540385430291 115.5645219501165" />
    <path d="M192.11477802783105 101.3583720104982 L51.630654267416034 115.80031793067405" />
    <path d="M191.29070536529764 100.67451399197961 L50.98449876243096 116.03532724176078" />
    <path d="M190.4599114862375 99.98394606933928 L50.34700819758038 116.26954727216453" />
    <path d="M189.6224874965616 99.28666767204165 L49.718252480888566 116.50297541944292" />
    <path d="M188.77852522924732 98.58267949789965 L49.09830056250527 116.73560908995228" />
    <path d="M187.92811723426786 97.87198353347293 L48.487220427144564 116.96744569887643" />
    <path d="M187.07135676844317 97.15458307449508 L47.8850790866296 117.19848267025544" />
    <path d="M186.20833778521305 96.43048274632493 L47.2919425725438 117.42871743701426" />
    <path d="M185.33915492433442 95.6996885244159 L46.70787592899006 117.65814744099113" />
    <path d="M184.46390350150273 94.96220775479705 L46.13294320545761 117.88677013296616" />
    <path d="M183.5826794978997 94.21804917456025 L45.56720744979852 118.11458297268958" />
    <path d="M182.69557954966777 93.46722293234714 L45.01073070131362 118.34158342890997" />
    <path d="M181.80270093731303 92.7097406088296 L44.463573983949345 118.56776897940235" />
    <path d="M180.90414157503716 91.94561523717691 L43.92579729960565 118.79313711099627" />
    <path d="M180 91.1748613235034 L43.39745962155612 119.01768531960371" />
    <path d="M179.0903753615141 90.39749486728971 L42.87861888798106 119.24141111024687" />
    <path d="M178.17536741017156 89.6135333817706 L42.36933199561365 119.46431199708593" />
    <path d="M177.2550764869054 88.82299591428233 L41.869654793500786 119.68638550344669" />
    <path d="M176.32960351198616 88.02590306656289 L41.379642076878525 119.90762916184799" />
    <path d="M175.39904997395467 87.22227701499656 L40.89934758116323 120.12804051402927" />
    <path d="M174.46351791849273 86.41214153079684 L40.42882397605871 120.34761711097777" />
    <path d="M173.52310993723276 85.59552200011926 L39.96812285978065 120.56635651295576" />
    <path d="M172.57792915650728 84.77244544409598 L39.51729475339806 120.78425628952769" />
    <path d="M171.62807922604011 83.94294053878531 L39.07638909529315 121.00131401958721" />
    <path d="M170.67366430758 83.10703763502741 L38.645454235739905 121.21752729138397" />
    <path d="M169.71478906347807 82.26476877819792 L38.22453743160189 121.4328937025505" />
    <path d="M168.7515586452103 81.41616772785159 L37.813684841149964 121.64741086012891" />
    <path d="M167.78407868184672 80.56126997724714 L37.412941519000526 121.86107638059745" />
    <path d="M166.81245526846783 79.70011277274496 L37.02235141117487 122.07388788989692" />
    <path d="M165.83679495453006 78.83273513306852 L36.64195735027984 122.28584302345725" />
    <path d="M164.85720473218154 77.959177868421 L36.27180105081085 122.49693942622355" />
    <path d="M163.87379202452914 77.07948359944783 L35.911923104577454 122.70717475268239" />
    <path d="M162.88666467385835 76.19369677603596 L35.562362976251904 122.91654666688788" />
    <path d="M161.89593092980704 75.30186369594071 L35.223158999041445 123.12505284248758" />
    <path d="M160.90169943749476 74.40403252323038 L34.89434837048465 123.33269096274834" />
    <path d="M159.9040792256087 73.50025330653958 L34.575967148372314 123.53945872058206" />
    <path d="M158.90317969444718 72.5905779971205 L34.26805024679328 123.74535381857136" />
    <path d="M157.8991106039229 71.67506046668363 L33.970631432305694 123.95037396899505" />
    <path d="M156.89198206152656 70.75375652501663 L33.683743320234186 124.15451689385353" />
    <path d="M155.8819045102521 69.82672393737165 L33.407417371093175 124.35778032489421" />
    <path d="M154.8689887164855 68.89402244161106 L33.14168388713689 124.5601620036366" />
    <path d="M153.8533457578581 67.95571376510084 L32.8865720090364 124.76165968139748" />
    <path d="M152.83508701106558 67.0118616413408 L32.642109712683975 124.96227111931582" />
    <path d="M151.81432413965422 66.06253182632143 L32.40832380612525 125.16199408837772" />
    <path d="M150.79116908177593 65.10779211459646 L32.18523992661943 125.36082636944111" />
    <path d="M149.76573403791264 64.14771235505941 L31.97288253782783 125.5587657532605" />
    <path d="M148.7381314585725 63.18236446641417 L31.771274927131145 125.75581004051142" />
    <path d="M147.70847403195833 62.21182245232741 L31.580439203075812 125.95195704181495" />
    <path d="M146.67687467161025 61.236162416252114 L31.40039629294951 126.14720457776194" />
    <path d="M145.6434465040231 60.255462575910116 L31.231165940486235 126.34155047893738" />
    <path d="M144.60830285624115 59.26980327742268 L31.072766703701163 126.53499258594434" />
    <path d="M143.57155724343045 58.27926700907693 L30.925215952855638 126.72752874942806" />
    <path d="M142.53332335643046 57.283938414716424 L30.788529868552217 126.91915683009982" />
    <path d="M141.49371504928666 56.28390430674399 L30.66272343996036 127.10987469876072" />
    <path d="M140.45284632676538 55.27925367872469 L30.547810463172667 127.29968023632527" />
    <path d="M139.41083133185143 54.27007771757651 L30.443803539692 127.488571333845" />
    <path d="M138.36778433323153 53.256469815336956 L30.350714075049567 127.6765458925319" />
    <path d="M137.32381971276317 52.23852558049268 L30.268552277554193 127.86360182378168" />
    <path d="M136.27905195293135 51.21634284885991 L30.19732715717285 128.04973704919706" />
    <path d="M135.23359562429442 50.190021694002844 L30.137046524542612 128.23494950061072" />
    <path d="M134.18756537291998 49.15966443717779 L30.08771699011416 128.4192371201085" />
    <path d="M133.14107590781282 48.12537565678963 L30.049343963426836 128.60259786005207" />
    <path d="M132.0942419883357 47.08726219734806 L30.02193165251545 128.7850296831017" />
    <path d="M131.04717841162457 46.0454331779107 L30.005483063448793 128.9665305622391" />
  </g>
</svg>